<?xml version="1.0"?>
<svg width="512" height="512" xmlns="http://www.w3.org/2000/svg" xmlns:svg="http://www.w3.org/2000/svg" class="fill-current text-green-600">
 <g class="layer">
  <title>Layer 1</title>
  <path d="m139.61,35.5a12,12 0 0 0 -17,0l-63.68,63.31l-22.7,-22.12a12,12 0 0 0 -17,0l-15.7,15.72a12,12 0 0 0 0,17l47.59,47.4a12.78,12.78 0 0 0 17.61,0l15.59,-15.62l72.2,-72.19a12.09,12.09 0 0 0 0.09,-17l-17,-16.5zm0,159.19a12,12 0 0 0 -17,0l-63.68,63.72l-22.7,-22.1a12,12 0 0 0 -17,0l-15.7,15.69a12,12 0 0 0 0,17l47.47,47.5a12.77,12.77 0 0 0 17.6,0l15.7,-15.69l72.2,-72.22a12,12 0 0 0 0.09,-16.9l-16.98,-17zm-75.61,173.31c-26.49,0 -48.59,21.5 -48.59,48s22.12,48 48.59,48a48,48 0 0 0 0,-96zm432,16l-288,0a16,16 0 0 0 -16,16l0,32a16,16 0 0 0 16,16l288,0a16,16 0 0 0 16,-16l0,-32a16,16 0 0 0 -16,-16zm0,-320l-288,0a16,16 0 0 0 -16,16l0,32a16,16 0 0 0 16,16l288,0a16,16 0 0 0 16,-16l0,-32a16,16 0 0 0 -16,-16zm0,160l-288,0a16,16 0 0 0 -16,16l0,32a16,16 0 0 0 16,16l288,0a16,16 0 0 0 16,-16l0,-32a16,16 0 0 0 -16,-16z" fill="#e52020" id="svg_1"/>
 </g>
</svg>